<mxfile host="app.diagrams.net" modified="2023-02-15T05:57:07.089Z" agent="5.0 (Windows NT 10.0; Win64; x64) AppleWebKit/537.36 (KHTML, like Gecko) Chrome/108.0.0.0 Safari/537.36 Edg/108.0.1462.54" etag="rHTyVS9dj4tDJr_9Fatv" version="20.8.20" type="github">
  <diagram id="C5RBs43oDa-KdzZeNtuy" name="Page-1">
    <mxGraphModel dx="1235" dy="1853" grid="1" gridSize="10" guides="1" tooltips="1" connect="1" arrows="1" fold="1" page="1" pageScale="1" pageWidth="827" pageHeight="1169" math="0" shadow="0">
      <root>
        <mxCell id="WIyWlLk6GJQsqaUBKTNV-0" />
        <mxCell id="WIyWlLk6GJQsqaUBKTNV-1" parent="WIyWlLk6GJQsqaUBKTNV-0" />
        <mxCell id="vrBolmcTxJKjvdd487P7-7" value="" style="edgeStyle=orthogonalEdgeStyle;rounded=0;orthogonalLoop=1;jettySize=auto;html=1;" edge="1" parent="WIyWlLk6GJQsqaUBKTNV-1" source="vrBolmcTxJKjvdd487P7-0" target="vrBolmcTxJKjvdd487P7-6">
          <mxGeometry relative="1" as="geometry" />
        </mxCell>
        <mxCell id="vrBolmcTxJKjvdd487P7-0" value="Sensing end" style="rounded=1;whiteSpace=wrap;html=1;" vertex="1" parent="WIyWlLk6GJQsqaUBKTNV-1">
          <mxGeometry x="490" y="73" width="100" height="50" as="geometry" />
        </mxCell>
        <mxCell id="vrBolmcTxJKjvdd487P7-14" style="edgeStyle=orthogonalEdgeStyle;rounded=0;orthogonalLoop=1;jettySize=auto;html=1;exitX=0.5;exitY=1;exitDx=0;exitDy=0;entryX=0.5;entryY=0;entryDx=0;entryDy=0;align=center;" edge="1" parent="WIyWlLk6GJQsqaUBKTNV-1" source="vrBolmcTxJKjvdd487P7-6" target="vrBolmcTxJKjvdd487P7-8">
          <mxGeometry relative="1" as="geometry" />
        </mxCell>
        <mxCell id="vrBolmcTxJKjvdd487P7-36" style="edgeStyle=orthogonalEdgeStyle;rounded=0;orthogonalLoop=1;jettySize=auto;html=1;exitX=1;exitY=0.5;exitDx=0;exitDy=0;entryX=1;entryY=0.5;entryDx=0;entryDy=0;" edge="1" parent="WIyWlLk6GJQsqaUBKTNV-1" source="vrBolmcTxJKjvdd487P7-6" target="vrBolmcTxJKjvdd487P7-34">
          <mxGeometry relative="1" as="geometry">
            <Array as="points">
              <mxPoint x="620" y="200" />
              <mxPoint x="620" y="760" />
            </Array>
          </mxGeometry>
        </mxCell>
        <mxCell id="vrBolmcTxJKjvdd487P7-6" value="Baseline Alreadyï¼Ÿ" style="rhombus;whiteSpace=wrap;html=1;rounded=1;" vertex="1" parent="WIyWlLk6GJQsqaUBKTNV-1">
          <mxGeometry x="500" y="160" width="80" height="80" as="geometry" />
        </mxCell>
        <mxCell id="vrBolmcTxJKjvdd487P7-20" style="edgeStyle=orthogonalEdgeStyle;rounded=0;orthogonalLoop=1;jettySize=auto;html=1;exitX=0.5;exitY=1;exitDx=0;exitDy=0;entryX=0.5;entryY=0;entryDx=0;entryDy=0;" edge="1" parent="WIyWlLk6GJQsqaUBKTNV-1" source="vrBolmcTxJKjvdd487P7-8" target="vrBolmcTxJKjvdd487P7-19">
          <mxGeometry relative="1" as="geometry" />
        </mxCell>
        <mxCell id="vrBolmcTxJKjvdd487P7-24" style="edgeStyle=orthogonalEdgeStyle;rounded=0;orthogonalLoop=1;jettySize=auto;html=1;exitX=0;exitY=0.5;exitDx=0;exitDy=0;entryX=0;entryY=0.5;entryDx=0;entryDy=0;" edge="1" parent="WIyWlLk6GJQsqaUBKTNV-1" source="vrBolmcTxJKjvdd487P7-8" target="vrBolmcTxJKjvdd487P7-0">
          <mxGeometry relative="1" as="geometry">
            <Array as="points">
              <mxPoint x="460" y="323" />
              <mxPoint x="460" y="98" />
            </Array>
          </mxGeometry>
        </mxCell>
        <mxCell id="vrBolmcTxJKjvdd487P7-8" value="Warm Up&lt;br&gt;Jump first N frame&amp;nbsp;" style="rhombus;whiteSpace=wrap;html=1;rounded=1;shape=label;perimeter=rectanglePerimeter;" vertex="1" parent="WIyWlLk6GJQsqaUBKTNV-1">
          <mxGeometry x="490" y="298" width="100" height="50" as="geometry" />
        </mxCell>
        <mxCell id="vrBolmcTxJKjvdd487P7-17" style="edgeStyle=orthogonalEdgeStyle;rounded=0;orthogonalLoop=1;jettySize=auto;html=1;exitX=0.5;exitY=1;exitDx=0;exitDy=0;exitPerimeter=0;entryX=0.5;entryY=0;entryDx=0;entryDy=0;" edge="1" parent="WIyWlLk6GJQsqaUBKTNV-1" source="vrBolmcTxJKjvdd487P7-16" target="vrBolmcTxJKjvdd487P7-0">
          <mxGeometry relative="1" as="geometry" />
        </mxCell>
        <mxCell id="vrBolmcTxJKjvdd487P7-16" value="Start" style="strokeWidth=2;html=1;shape=mxgraph.flowchart.start_2;whiteSpace=wrap;" vertex="1" parent="WIyWlLk6GJQsqaUBKTNV-1">
          <mxGeometry x="505" y="-30" width="70" height="70" as="geometry" />
        </mxCell>
        <mxCell id="vrBolmcTxJKjvdd487P7-18" value="No" style="text;html=1;strokeColor=none;fillColor=none;align=center;verticalAlign=middle;whiteSpace=wrap;rounded=0;" vertex="1" parent="WIyWlLk6GJQsqaUBKTNV-1">
          <mxGeometry x="520" y="250" width="60" height="30" as="geometry" />
        </mxCell>
        <mxCell id="vrBolmcTxJKjvdd487P7-22" value="" style="edgeStyle=orthogonalEdgeStyle;rounded=0;orthogonalLoop=1;jettySize=auto;html=1;" edge="1" parent="WIyWlLk6GJQsqaUBKTNV-1" source="vrBolmcTxJKjvdd487P7-19" target="vrBolmcTxJKjvdd487P7-21">
          <mxGeometry relative="1" as="geometry" />
        </mxCell>
        <mxCell id="vrBolmcTxJKjvdd487P7-19" value="Accumulate&lt;br&gt;data" style="shape=parallelogram;html=1;strokeWidth=2;perimeter=parallelogramPerimeter;whiteSpace=wrap;rounded=1;arcSize=12;size=0.23;" vertex="1" parent="WIyWlLk6GJQsqaUBKTNV-1">
          <mxGeometry x="490" y="390" width="100" height="60" as="geometry" />
        </mxCell>
        <mxCell id="vrBolmcTxJKjvdd487P7-25" style="edgeStyle=orthogonalEdgeStyle;rounded=0;orthogonalLoop=1;jettySize=auto;html=1;exitX=0;exitY=0.5;exitDx=0;exitDy=0;entryX=0;entryY=0.5;entryDx=0;entryDy=0;" edge="1" parent="WIyWlLk6GJQsqaUBKTNV-1" source="vrBolmcTxJKjvdd487P7-21" target="vrBolmcTxJKjvdd487P7-0">
          <mxGeometry relative="1" as="geometry">
            <Array as="points">
              <mxPoint x="440" y="520" />
              <mxPoint x="440" y="98" />
            </Array>
          </mxGeometry>
        </mxCell>
        <mxCell id="vrBolmcTxJKjvdd487P7-30" value="" style="edgeStyle=orthogonalEdgeStyle;rounded=0;orthogonalLoop=1;jettySize=auto;html=1;" edge="1" parent="WIyWlLk6GJQsqaUBKTNV-1" source="vrBolmcTxJKjvdd487P7-21" target="vrBolmcTxJKjvdd487P7-29">
          <mxGeometry relative="1" as="geometry" />
        </mxCell>
        <mxCell id="vrBolmcTxJKjvdd487P7-21" value="Frame enough" style="rhombus;whiteSpace=wrap;html=1;strokeWidth=2;rounded=1;arcSize=12;" vertex="1" parent="WIyWlLk6GJQsqaUBKTNV-1">
          <mxGeometry x="500" y="480" width="80" height="80" as="geometry" />
        </mxCell>
        <mxCell id="vrBolmcTxJKjvdd487P7-26" value="No" style="text;html=1;strokeColor=none;fillColor=none;align=center;verticalAlign=middle;whiteSpace=wrap;rounded=0;" vertex="1" parent="WIyWlLk6GJQsqaUBKTNV-1">
          <mxGeometry x="460" y="490" width="60" height="30" as="geometry" />
        </mxCell>
        <mxCell id="vrBolmcTxJKjvdd487P7-35" value="" style="edgeStyle=orthogonalEdgeStyle;rounded=0;orthogonalLoop=1;jettySize=auto;html=1;" edge="1" parent="WIyWlLk6GJQsqaUBKTNV-1" source="vrBolmcTxJKjvdd487P7-29" target="vrBolmcTxJKjvdd487P7-34">
          <mxGeometry relative="1" as="geometry" />
        </mxCell>
        <mxCell id="vrBolmcTxJKjvdd487P7-29" value="Calculate average value" style="whiteSpace=wrap;html=1;strokeWidth=2;rounded=1;arcSize=12;" vertex="1" parent="WIyWlLk6GJQsqaUBKTNV-1">
          <mxGeometry x="480" y="600" width="120" height="60" as="geometry" />
        </mxCell>
        <mxCell id="vrBolmcTxJKjvdd487P7-31" value="Yes" style="text;html=1;strokeColor=none;fillColor=none;align=center;verticalAlign=middle;whiteSpace=wrap;rounded=0;" vertex="1" parent="WIyWlLk6GJQsqaUBKTNV-1">
          <mxGeometry x="495" y="560" width="60" height="30" as="geometry" />
        </mxCell>
        <mxCell id="vrBolmcTxJKjvdd487P7-34" value="End" style="ellipse;whiteSpace=wrap;html=1;strokeWidth=2;rounded=1;arcSize=12;" vertex="1" parent="WIyWlLk6GJQsqaUBKTNV-1">
          <mxGeometry x="500" y="719" width="80" height="80" as="geometry" />
        </mxCell>
      </root>
    </mxGraphModel>
  </diagram>
</mxfile>
